<?xml version="1.0" encoding="UTF-8" standalone="no"?>
<!DOCTYPE svg PUBLIC "-//W3C//DTD SVG 20010904//EN" "http://www.w3.org/TR/2001/REC-SVG-20010904/DTD/svg10.dtd">
<svg xmlns="http://www.w3.org/2000/svg" width="6.20833in" height="6.19444in" viewBox="0 0 447 446">
  <path id="Auswahl" fill="black" d="M 223.56,1.04            C 228.86,-0.74 228.70,2.95 229.16,7.00              229.16,7.00 231.28,25.00 231.28,25.00              231.28,25.00 238.17,84.00 238.17,84.00              238.17,84.00 240.95,107.00 240.95,107.00              241.04,114.07 235.23,121.13 231.60,127.00              229.95,129.66 227.91,133.58 224.09,132.34              221.44,131.49 219.89,128.25 218.58,126.00              214.54,119.05 210.72,113.27 211.04,105.00              211.04,105.00 213.83,80.00 213.83,80.00              213.83,80.00 218.84,31.00 218.84,31.00              218.84,31.00 220.84,11.00 220.84,11.00              221.28,6.83 220.73,4.44 223.56,1.04 Z            M 48.00,211.00            C 48.15,194.86 53.79,172.99 59.80,158.00              81.02,105.09 125.49,65.07 181.00,51.13              190.71,48.69 202.01,46.46 212.00,46.00              212.00,46.00 210.00,66.00 210.00,66.00              194.60,66.34 174.02,73.37 160.00,79.70              123.22,96.29 95.66,125.04 79.72,162.00              73.96,175.34 68.13,194.45 68.00,209.00              68.00,209.00 48.00,211.00 48.00,211.00 Z            M 239.00,46.00            C 248.70,46.21 261.53,48.75 271.00,51.13              326.51,65.07 370.98,105.09 392.20,158.00              398.21,172.99 403.85,194.86 404.00,211.00              400.79,211.00 387.67,210.47 385.57,208.83              383.83,207.46 383.88,204.07 383.57,202.00              383.57,202.00 380.77,187.00 380.77,187.00              377.08,171.22 369.90,154.84 361.55,141.00              342.27,109.04 311.25,85.13 276.00,73.33              265.06,69.67 252.59,66.10 241.00,66.00              241.00,66.00 239.00,46.00 239.00,46.00 Z            M 225.00,151.00            C 225.00,151.00 270.01,190.00 270.01,190.00              277.55,196.64 294.82,210.77 300.00,218.00              298.42,219.60 295.32,223.33 293.00,223.45              290.22,223.60 279.64,213.40 277.00,211.13              277.00,211.13 241.28,179.46 241.28,179.46              238.52,176.91 229.18,167.96 226.00,167.72              223.63,167.54 221.71,169.47 220.04,170.86              220.04,170.86 208.00,181.58 208.00,181.58              208.00,181.58 158.00,225.00 158.00,225.00              158.00,225.00 153.16,217.04 153.16,217.04              153.16,217.04 157.02,211.72 157.02,211.72              157.02,211.72 168.96,201.13 168.96,201.13              168.96,201.13 206.00,168.15 206.00,168.15              206.00,168.15 225.00,151.00 225.00,151.00 Z            M 173.00,161.00            C 173.00,161.00 192.00,161.00 192.00,161.00              191.82,163.19 191.22,168.99 190.42,170.83              188.77,174.62 176.93,184.54 173.00,187.00              173.00,187.00 173.00,161.00 173.00,161.00 Z            M 208.00,292.00            C 208.00,292.00 182.00,292.00 182.00,292.00              180.01,292.00 176.19,292.23 174.60,290.98              172.62,289.41 173.00,285.30 173.00,283.00              173.00,283.00 173.00,231.00 173.00,231.00              173.02,220.57 177.03,219.94 184.58,213.12              184.58,213.12 203.00,196.87 203.00,196.87              203.00,196.87 219.00,182.72 219.00,182.72              220.69,181.27 223.51,178.35 225.83,178.32              227.82,178.30 230.59,181.03 232.04,182.29              232.04,182.29 246.00,194.42 246.00,194.42              246.00,194.42 268.00,214.05 268.00,214.05              273.85,219.25 277.84,220.70 278.00,229.00              278.00,229.00 278.00,256.00 278.00,256.00              278.00,256.00 278.00,283.00 278.00,283.00              278.00,284.99 278.23,288.81 276.98,290.40              275.41,292.38 271.30,292.00 269.00,292.00              269.00,292.00 243.00,292.00 243.00,292.00              243.00,292.00 243.00,270.00 243.00,270.00              242.99,267.47 243.34,263.64 241.40,261.74              239.42,259.80 235.58,260.01 233.00,260.00              233.00,260.00 217.00,260.00 217.00,260.00              214.27,260.05 211.65,260.00 209.74,262.31              207.71,264.77 208.00,268.97 208.00,272.00              208.00,272.00 208.00,292.00 208.00,292.00 Z            M 102.00,211.42            C 112.28,210.17 116.30,213.00 125.00,218.00              127.45,219.41 132.37,221.65 132.37,224.94              132.37,227.37 129.76,228.85 127.98,230.00              124.90,231.98 114.86,238.38 112.00,239.30              107.26,240.84 91.77,237.98 86.00,237.28              86.00,237.28 27.00,230.42 27.00,230.42              27.00,230.42 7.00,228.07 7.00,228.07              4.94,227.84 0.73,227.52 1.74,224.24              2.46,221.94 5.98,221.42 8.00,221.17              8.00,221.17 25.00,219.58 25.00,219.58              25.00,219.58 102.00,211.42 102.00,211.42 Z            M 335.00,211.63            C 342.45,210.14 357.72,213.03 366.00,213.83              366.00,213.83 420.00,219.28 420.00,219.28              420.00,219.28 440.98,221.48 440.98,221.48              443.25,222.00 447.59,224.35 444.38,226.98              443.08,228.05 438.81,228.18 437.00,228.42              437.00,228.42 416.00,230.93 416.00,230.93              416.00,230.93 362.00,237.17 362.00,237.17              362.00,237.17 337.00,239.77 337.00,239.77              332.81,239.12 323.01,232.56 319.02,230.00              316.97,228.68 314.01,226.99 314.74,224.06              315.33,221.72 318.10,220.29 320.00,219.15              324.80,216.30 329.76,213.56 335.00,211.63 Z            M 48.00,239.00            C 51.72,239.67 65.13,240.46 67.15,242.60              68.70,244.25 69.02,247.81 69.42,250.00              69.42,250.00 73.14,266.00 73.14,266.00              77.04,279.64 84.08,295.05 91.69,307.00              111.67,338.35 140.81,360.90 176.00,372.67              186.35,376.13 199.07,379.76 210.00,380.00              210.00,380.00 212.00,400.00 212.00,400.00              203.21,399.60 191.58,397.51 183.00,395.37              132.26,382.75 89.27,348.93 65.81,302.00              55.29,280.97 51.04,262.03 48.00,239.00 Z            M 384.00,241.00            C 384.00,241.00 404.00,239.00 404.00,239.00              400.96,262.03 396.71,280.97 386.19,302.00              362.73,348.93 319.74,382.75 269.00,395.37              260.51,397.49 247.66,399.81 239.00,400.00              239.00,400.00 241.00,380.00 241.00,380.00              257.01,379.86 277.46,372.87 292.00,366.30              343.00,343.29 376.68,296.15 384.00,241.00 Z            M 223.21,313.85            C 224.64,313.63 225.05,313.07 226.80,313.85              228.98,314.39 230.46,317.16 231.60,319.00              234.18,323.17 240.05,331.55 240.78,336.00              241.47,340.25 238.72,356.49 238.17,362.00              238.17,362.00 231.72,418.00 231.72,418.00              231.72,418.00 229.07,440.00 229.07,440.00              228.77,442.60 228.15,446.84 224.28,445.34              221.41,444.24 221.23,439.57 221.00,437.00              221.00,437.00 218.72,414.00 218.72,414.00              218.72,414.00 212.84,357.00 212.84,357.00              212.84,357.00 211.04,338.00 211.04,338.00              211.32,332.66 214.31,327.60 216.86,323.00              218.85,319.41 220.05,316.72 223.21,313.85 Z"/>
  <path id="Auswahl #1" fill="#15AABF" d="M 95.00,206.00            C 95.26,194.22 100.84,179.70 105.70,169.00              120.97,135.36 150.11,110.00 185.00,98.33              192.55,95.81 198.97,93.66 207.00,93.00              207.00,93.00 206.00,113.00 206.00,113.00              201.16,113.75 196.62,115.43 192.00,117.00              161.96,127.24 135.78,149.60 123.15,179.00              119.83,186.73 115.70,196.67 115.00,205.00              115.00,205.00 95.00,206.00 95.00,206.00 Z            M 245.00,93.00            C 253.03,93.66 259.45,95.81 267.00,98.33              299.64,109.25 327.47,132.40 343.52,163.00              348.22,171.98 353.07,185.13 355.53,195.00              355.53,195.00 358.00,207.00 358.00,207.00              358.00,207.00 337.00,205.00 337.00,205.00              336.30,196.67 332.17,186.73 328.85,179.00              316.22,149.60 290.04,127.24 260.00,117.00              255.38,115.43 250.84,113.75 246.00,113.00              246.00,113.00 245.00,93.00 245.00,93.00 Z            M 336.00,246.00            C 336.00,246.00 357.00,244.00 357.00,244.00              348.43,289.48 317.39,328.38 274.00,345.19              265.38,348.53 254.18,352.25 245.00,353.00              245.00,353.00 246.00,333.00 246.00,333.00              250.84,332.25 255.38,330.57 260.00,329.00              290.04,318.76 316.22,296.40 328.85,267.00              331.46,260.92 335.01,252.43 336.00,246.00 Z            M 95.00,245.00            C 95.00,245.00 116.00,246.00 116.00,246.00              116.99,252.43 120.54,260.92 123.15,267.00              135.78,296.40 161.96,318.76 192.00,329.00              196.62,330.57 201.16,332.25 206.00,333.00              206.00,333.00 207.00,353.00 207.00,353.00              198.97,352.34 192.55,350.19 185.00,347.67              152.36,336.75 124.53,313.60 108.48,283.00              101.78,270.22 98.65,258.72 95.00,245.00 Z"/>
</svg>